<?xml version="1.0" encoding="UTF-8"?>
<svg width="1228px" height="981px" viewBox="0 0 1228 981" version="1.1" xmlns="http://www.w3.org/2000/svg" xmlns:xlink="http://www.w3.org/1999/xlink">
    <!-- Generator: Sketch 61.2 (89653) - https://sketch.com -->
    <title>illustration</title>
    <desc>Created with Sketch.</desc>
    <defs>
        <linearGradient x1="-7.96240972%" y1="50.314754%" x2="80.2983519%" y2="49.8335725%" id="linearGradient-1">
            <stop stop-color="#B1D0EF" stop-opacity="0.284473339" offset="0%"></stop>
            <stop stop-color="#765200" stop-opacity="0.0107626748" offset="100%"></stop>
        </linearGradient>
        <linearGradient x1="111.359646%" y1="47.8452116%" x2="12.37095%" y2="50.3331262%" id="linearGradient-2">
            <stop stop-color="#B1D0EF" offset="0%"></stop>
            <stop stop-color="#B1D0EF" stop-opacity="0" offset="100%"></stop>
        </linearGradient>
        <linearGradient x1="0.000932377795%" y1="49.9992357%" x2="99.99965%" y2="49.9992357%" id="linearGradient-3">
            <stop stop-color="#FFFFFF" offset="0%"></stop>
            <stop stop-color="#FFFFFF" stop-opacity="0" offset="100%"></stop>
        </linearGradient>
        <linearGradient x1="0%" y1="50%" x2="100%" y2="50%" id="linearGradient-4">
            <stop stop-color="#B1D0EF" offset="0%"></stop>
            <stop stop-color="#B1D0EF" stop-opacity="0" offset="100%"></stop>
        </linearGradient>
        <linearGradient x1="24.3534584%" y1="101.467267%" x2="54.676059%" y2="49.5903279%" id="linearGradient-5">
            <stop stop-color="#FFFFFF" offset="0%"></stop>
            <stop stop-color="#FFFFFF" stop-opacity="0" offset="100%"></stop>
        </linearGradient>
        <linearGradient x1="13.754667%" y1="114.448041%" x2="45.5973983%" y2="57.5160714%" id="linearGradient-6">
            <stop stop-color="#FFFFFF" offset="0%"></stop>
            <stop stop-color="#FFFFFF" stop-opacity="0" offset="100%"></stop>
        </linearGradient>
        <linearGradient x1="-0.32020328%" y1="105.304819%" x2="59.9211695%" y2="44.1749269%" id="linearGradient-7">
            <stop stop-color="#B1D0EF" offset="0%"></stop>
            <stop stop-color="#B1D0EF" stop-opacity="0" offset="100%"></stop>
        </linearGradient>
        <linearGradient x1="-8.6375609%" y1="124.791015%" x2="45.153086%" y2="50.0169978%" id="linearGradient-8">
            <stop stop-color="#FFFFFF" offset="0%"></stop>
            <stop stop-color="#FFFFFF" stop-opacity="0" offset="100%"></stop>
        </linearGradient>
        <linearGradient x1="30.5105339%" y1="118.188027%" x2="52.9945017%" y2="34.9097231%" id="linearGradient-9">
            <stop stop-color="#FFFFFF" offset="0%"></stop>
            <stop stop-color="#FFFFFF" stop-opacity="0" offset="100%"></stop>
        </linearGradient>
        <linearGradient x1="-12.4412215%" y1="22.3366865%" x2="109.80681%" y2="76.49876%" id="linearGradient-10">
            <stop stop-color="#B1D0EF" offset="0%"></stop>
            <stop stop-color="#B1D0EF" stop-opacity="0" offset="100%"></stop>
        </linearGradient>
        <linearGradient x1="18.610374%" y1="91.4109468%" x2="51.1055483%" y2="50.929793%" id="linearGradient-11">
            <stop stop-color="#B1D0EF" offset="0%"></stop>
            <stop stop-color="#B1D0EF" stop-opacity="0.72" offset="18%"></stop>
            <stop stop-color="#B1D0EF" stop-opacity="0.46" offset="35%"></stop>
            <stop stop-color="#B1D0EF" stop-opacity="0.26" offset="51%"></stop>
            <stop stop-color="#B1D0EF" stop-opacity="0.12" offset="65%"></stop>
            <stop stop-color="#B1D0EF" stop-opacity="0.03" offset="77%"></stop>
            <stop stop-color="#B1D0EF" stop-opacity="0" offset="84%"></stop>
        </linearGradient>
        <linearGradient x1="45.549639%" y1="122.041959%" x2="51.6463776%" y2="55.7920308%" id="linearGradient-12">
            <stop stop-color="#FFFFFF" offset="0%"></stop>
            <stop stop-color="#FFFFFF" stop-opacity="0" offset="100%"></stop>
        </linearGradient>
    </defs>
    <g id="MAIN-FLOW-v2" stroke="none" stroke-width="1" fill="none" fill-rule="evenodd">
        <g id="ABOUT" transform="translate(-206.000000, -2908.000000)">
            <g id="section" transform="translate(244.000000, 2908.000000)">
                <g id="illustration">
                    <polyline id="Line-4" stroke="#FEB512" stroke-width="55" stroke-linecap="square" points="1.59872116e-13 943 461.228701 665.070547 312.341293 578.821701 602 412"></polyline>
                    <g id="Group-11" transform="translate(295.000000, 0.000000)">
                        <path d="M527.59237,393.151487 C539.520495,400.044102 539.58198,411.224089 527.735835,418.116705 L387.426651,499.720351 C375.580506,506.612967 356.294654,506.612967 344.387023,499.720351 L203.155561,418.116705 C191.227436,411.224089 191.145456,400.044102 203.012096,393.151487 L343.32128,311.54784 C355.167425,304.655224 374.432782,304.655224 386.360907,311.54784 L527.59237,393.151487 Z" id="Path" fill="url(#linearGradient-1)" fill-rule="nonzero"></path>
                        <g id="Group-22" transform="translate(91.797231, 0.000000)">
                            <path d="M530.146038,255.754282 C549.092038,266.694905 549.207719,284.449311 530.3774,295.389933 L307.279893,425.070377 C288.436721,436.023855 257.794072,436.010999 238.848072,425.070377 L14.2852703,295.364221 C-4.67358335,284.423598 -4.77641103,266.669192 14.0667615,255.715714 L237.164268,126.048126 C255.994587,115.094648 286.624383,115.107504 305.583237,126.048126 L530.146038,255.754282 Z" id="Path" fill="#B8D9F4" fill-rule="nonzero"></path>
                            <path d="M544.41074,249.56413 C544.41074,249.808928 544.41074,250.040843 544.41074,250.285641 C544.41074,250.53044 544.41074,250.723702 544.333621,250.929849 C544.256502,251.135995 544.269355,251.419446 544.217942,251.65136 C544.166529,251.883275 544.140823,252.089421 544.08941,252.295568 C544.037997,252.501714 543.973731,252.772281 543.909465,253.004195 C543.845199,253.23611 543.793786,253.429372 543.72952,253.648402 L543.498162,254.344146 C543.421043,254.550292 543.343924,254.769323 543.253951,254.975469 C543.163979,255.181615 543.061153,255.465066 542.945474,255.709865 C542.829795,255.954664 542.765529,256.122158 542.662703,256.31542 C542.559878,256.508682 542.418492,256.805017 542.28996,257.049816 C542.161428,257.294614 542.084309,257.43634 541.96863,257.629602 C541.852951,257.822864 541.621593,258.209388 541.441648,258.49284 L541.094611,259.021089 L540.413391,259.948748 L540.104914,260.36104 C539.719318,260.850638 539.295162,261.340235 538.819593,261.829832 L538.459703,262.190588 C538.112666,262.564228 537.752776,262.924984 537.36718,263.28574 L536.840198,263.788222 L536.146125,264.393776 L535.477758,264.947795 L534.719418,265.540465 L533.999639,266.081599 L533.177033,266.661385 L532.40584,267.176751 L531.531822,267.743653 C531.159079,267.975568 530.799189,268.207482 530.413592,268.426513 L307.307543,398.375964 C306.25358,398.981519 305.161057,399.548421 304.042827,400.089555 L303.155956,400.514732 C302.140552,400.978561 301.112295,401.429506 300.045478,401.803146 L299.634176,401.97064 C298.503093,402.395816 297.346304,402.795225 296.163808,403.155981 C295.354056,403.413664 294.505744,403.645578 293.670285,403.877493 L291.76801,404.392858 C290.893992,404.599005 289.994267,404.779383 289.094542,404.95976 C288.451881,405.088602 287.809221,405.243212 287.140854,405.359169 L286.318248,405.48801 C285.212872,405.668388 284.094643,405.822998 282.976413,405.964724 L281.999569,406.080681 L280.045881,406.248175 C278.966211,406.338364 277.873688,406.415668 276.781165,406.467205 L274.686092,406.467205 C273.79922,406.467205 272.912348,406.467205 272.025477,406.467205 C271.138605,406.467205 270.547357,406.467205 269.814724,406.467205 C269.082091,406.467205 268.182366,406.3899 267.359761,406.338364 L265.123302,406.157986 L262.706898,405.887419 L260.547559,405.578199 C259.686393,405.436474 258.825228,405.294748 257.976916,405.127254 C257.128604,404.95976 256.691595,404.869571 255.971815,404.714962 C254.956412,404.495931 253.966714,404.251133 252.964164,403.980566 L251.049035,403.4652 L250.020778,403.143097 C249.031081,402.833877 248.041384,402.498889 247.077393,402.138133 L246.241934,401.828914 C245.367916,401.493926 244.519604,401.107402 243.671292,400.733762 C243.259989,400.553384 242.82298,400.38589 242.38597,400.192628 C241.164915,399.612842 239.969567,398.994403 238.838484,398.337312 L14.2800216,268.374976 C4.74293851,262.860564 -0.025603046,255.606792 0,248.365904 L0,269.792232 C0,277.020235 4.74293851,284.274007 14.2800216,289.788419 L238.838484,419.750755 C239.986704,420.412141 241.1692,421.03058 242.38597,421.606071 L243.671292,422.160089 C244.403925,422.482193 245.110851,422.817181 245.856338,423.100632 L246.241934,423.242357 L247.090246,423.551577 C248.054237,423.912333 249.031081,424.24732 250.020778,424.569424 L251.049035,424.878643 L251.730255,425.097674 C252.141558,425.213631 252.565714,425.290936 253.015577,425.406893 C254.005274,425.664576 255.007824,425.922259 256.023228,426.141289 C256.293146,426.141289 256.55021,426.283015 256.820127,426.334551 L258.015476,426.540698 C258.876641,426.708191 259.724953,426.862801 260.586118,426.991643 L261.614375,427.17202 L262.745458,427.300862 C263.55521,427.403935 264.352109,427.494124 265.161862,427.571429 L266.318651,427.70027 L267.398321,427.70027 C268.220926,427.764691 269.030678,427.803343 269.853284,427.841996 L271.138605,427.841996 L272.128302,427.841996 C273.002321,427.841996 273.889192,427.841996 274.776064,427.841996 L276.061385,427.841996 L276.832578,427.841996 C277.925101,427.841996 279.017624,427.713154 280.110147,427.622965 C280.547156,427.622965 280.984165,427.622965 281.395468,427.532776 L282.025276,427.455472 L283.00212,427.339514 C284.133202,427.210673 285.238578,427.056063 286.356808,426.862801 L287.179413,426.73396 L287.56501,426.73396 C288.091991,426.643771 288.60612,426.514929 289.133102,426.398972 C290.019973,426.218594 290.919698,426.038216 291.793716,425.83207 C292.44923,425.67746 293.079038,425.484198 293.708845,425.316704 C294.338652,425.14921 295.379763,424.865759 296.189515,424.608076 L296.72935,424.453467 C297.7319,424.131363 298.708744,423.783491 299.672735,423.409851 L300.084038,423.242357 C301.138001,422.830065 302.166258,422.37912 303.181662,421.953943 L304.068534,421.528766 C305.186763,420.987633 306.279286,420.42073 307.333249,419.815176 L530.426446,289.85284 L531.017693,289.504968 L531.544675,289.169981 L532.418694,288.615962 L533.202739,288.087713 L534.012492,287.507926 C534.256703,287.340432 534.500914,287.160055 534.732272,286.966792 C534.963629,286.77353 535.2464,286.580268 535.490611,286.374122 L536.158978,285.820104 C536.390336,285.626842 536.634547,285.420695 536.853052,285.214549 L537.135822,284.956866 L537.380033,284.724952 C537.76563,284.364196 538.12552,283.990556 538.472556,283.6298 L538.832446,283.25616 C539.282309,282.779446 539.693611,282.289849 540.117767,281.787367 L540.117767,281.787367 C540.20774,281.684294 540.284859,281.555453 540.361978,281.45238 C540.606189,281.130276 540.837547,280.821057 541.043199,280.511837 C541.24885,280.202618 541.274556,280.163966 541.390235,279.983588 C541.505914,279.80321 541.750125,279.416685 541.917217,279.133234 C541.968981,279.058867 542.016196,278.98142 542.058602,278.90132 C542.122868,278.785363 542.174281,278.656521 542.238547,278.540564 L542.624144,277.819052 L542.906914,277.200613 L543.215391,276.466217 L543.343924,276.144113 C543.343924,276.04104 543.40819,275.937967 543.446749,275.847778 C543.485309,275.757589 543.600988,275.371065 543.678107,275.13915 L543.870905,274.494943 C543.935171,274.263029 543.986584,274.031114 544.037997,273.786316 C544.08941,273.541517 544.102263,273.541517 544.127969,273.412675 C544.133264,273.326863 544.133264,273.240805 544.127969,273.154993 C544.17905,272.912341 544.21766,272.667219 544.243648,272.420597 C544.243648,272.21445 544.307914,271.99542 544.333621,271.789274 C544.359327,271.583127 544.333621,271.299676 544.333621,271.054878 C544.333621,270.810079 544.333621,270.771426 544.333621,270.629701 L544.333621,270.178756 L544.333621,248.752429 C544.4493,248.971459 544.436447,249.25491 544.41074,249.56413 Z" id="Path" fill="#F1F3F7" fill-rule="nonzero"></path>
                            <path d="M544.41074,249.56413 C544.41074,249.808928 544.41074,250.040843 544.41074,250.285641 C544.41074,250.53044 544.41074,250.723702 544.333621,250.929849 C544.256502,251.135995 544.269355,251.419446 544.217942,251.65136 C544.166529,251.883275 544.140823,252.089421 544.08941,252.295568 C544.037997,252.501714 543.973731,252.772281 543.909465,253.004195 C543.845199,253.23611 543.793786,253.429372 543.72952,253.648402 L543.498162,254.344146 C543.421043,254.550292 543.343924,254.769323 543.253951,254.975469 C543.163979,255.181615 543.061153,255.465066 542.945474,255.709865 C542.829795,255.954664 542.765529,256.122158 542.662703,256.31542 C542.559878,256.508682 542.418492,256.805017 542.28996,257.049816 C542.161428,257.294614 542.084309,257.43634 541.96863,257.629602 C541.852951,257.822864 541.621593,258.209388 541.441648,258.49284 L541.094611,259.021089 L540.413391,259.948748 L540.104914,260.36104 C539.719318,260.850638 539.295162,261.340235 538.819593,261.829832 L538.459703,262.190588 C538.112666,262.564228 537.752776,262.924984 537.36718,263.28574 L536.840198,263.788222 L536.146125,264.393776 L535.477758,264.947795 L534.719418,265.540465 L533.999639,266.081599 L533.177033,266.661385 L532.40584,267.176751 L531.531822,267.743653 C531.159079,267.975568 530.799189,268.207482 530.413592,268.426513 L307.307543,398.375964 C306.25358,398.981519 305.161057,399.548421 304.042827,400.089555 L303.155956,400.514732 C302.140552,400.978561 301.112295,401.429506 300.045478,401.803146 L299.634176,401.97064 C298.503093,402.395816 297.346304,402.795225 296.163808,403.155981 C295.354056,403.413664 294.505744,403.645578 293.670285,403.877493 L291.76801,404.392858 C290.893992,404.599005 289.994267,404.779383 289.094542,404.95976 C288.451881,405.088602 287.809221,405.243212 287.140854,405.359169 L286.318248,405.48801 C285.212872,405.668388 284.094643,405.822998 282.976413,405.964724 L281.999569,406.080681 L280.045881,406.248175 C278.966211,406.338364 277.873688,406.415668 276.781165,406.467205 L274.686092,406.467205 C273.79922,406.467205 272.912348,406.467205 272.025477,406.467205 C271.138605,406.467205 270.547357,406.467205 269.814724,406.467205 C269.082091,406.467205 268.182366,406.3899 267.359761,406.338364 L265.123302,406.157986 L262.706898,405.887419 L260.547559,405.578199 C259.686393,405.436474 258.825228,405.294748 257.976916,405.127254 C257.128604,404.95976 256.691595,404.869571 255.971815,404.714962 C254.956412,404.495931 253.966714,404.251133 252.964164,403.980566 L251.049035,403.4652 L250.020778,403.143097 C249.031081,402.833877 248.041384,402.498889 247.077393,402.138133 L246.241934,401.828914 C245.367916,401.493926 244.519604,401.107402 243.671292,400.733762 C243.259989,400.553384 242.82298,400.38589 242.38597,400.192628 C241.164915,399.612842 239.969567,398.994403 238.838484,398.337312 L14.2800216,268.374976 C4.74293851,262.860564 -0.025603046,255.606792 0,248.365904 L0,269.792232 C0,277.020235 4.74293851,284.274007 14.2800216,289.788419 L238.838484,419.750755 C239.986704,420.412141 241.1692,421.03058 242.38597,421.606071 L243.671292,422.160089 C244.403925,422.482193 245.110851,422.817181 245.856338,423.100632 L246.241934,423.242357 L247.090246,423.551577 C248.054237,423.912333 249.031081,424.24732 250.020778,424.569424 L251.049035,424.878643 L251.730255,425.097674 C252.141558,425.213631 252.565714,425.290936 253.015577,425.406893 C254.005274,425.664576 255.007824,425.922259 256.023228,426.141289 C256.293146,426.141289 256.55021,426.283015 256.820127,426.334551 L258.015476,426.540698 C258.876641,426.708191 259.724953,426.862801 260.586118,426.991643 L261.614375,427.17202 L262.745458,427.300862 C263.55521,427.403935 264.352109,427.494124 265.161862,427.571429 L266.318651,427.70027 L267.398321,427.70027 C268.220926,427.764691 269.030678,427.803343 269.853284,427.841996 L271.138605,427.841996 L272.128302,427.841996 C273.002321,427.841996 273.889192,427.841996 274.776064,427.841996 L276.061385,427.841996 L276.832578,427.841996 C277.925101,427.841996 279.017624,427.713154 280.110147,427.622965 C280.547156,427.622965 280.984165,427.622965 281.395468,427.532776 L282.025276,427.455472 L283.00212,427.339514 C284.133202,427.210673 285.238578,427.056063 286.356808,426.862801 L287.179413,426.73396 L287.56501,426.73396 C288.091991,426.643771 288.60612,426.514929 289.133102,426.398972 C290.019973,426.218594 290.919698,426.038216 291.793716,425.83207 C292.44923,425.67746 293.079038,425.484198 293.708845,425.316704 C294.338652,425.14921 295.379763,424.865759 296.189515,424.608076 L296.72935,424.453467 C297.7319,424.131363 298.708744,423.783491 299.672735,423.409851 L300.084038,423.242357 C301.138001,422.830065 302.166258,422.37912 303.181662,421.953943 L304.068534,421.528766 C305.186763,420.987633 306.279286,420.42073 307.333249,419.815176 L530.426446,289.85284 L531.017693,289.504968 L531.544675,289.169981 L532.418694,288.615962 L533.202739,288.087713 L534.012492,287.507926 C534.256703,287.340432 534.500914,287.160055 534.732272,286.966792 C534.963629,286.77353 535.2464,286.580268 535.490611,286.374122 L536.158978,285.820104 C536.390336,285.626842 536.634547,285.420695 536.853052,285.214549 L537.135822,284.956866 L537.380033,284.724952 C537.76563,284.364196 538.12552,283.990556 538.472556,283.6298 L538.832446,283.25616 C539.282309,282.779446 539.693611,282.289849 540.117767,281.787367 L540.117767,281.787367 C540.20774,281.684294 540.284859,281.555453 540.361978,281.45238 C540.606189,281.130276 540.837547,280.821057 541.043199,280.511837 C541.24885,280.202618 541.274556,280.163966 541.390235,279.983588 C541.505914,279.80321 541.750125,279.416685 541.917217,279.133234 C541.968981,279.058867 542.016196,278.98142 542.058602,278.90132 C542.122868,278.785363 542.174281,278.656521 542.238547,278.540564 L542.624144,277.819052 L542.906914,277.200613 L543.215391,276.466217 L543.343924,276.144113 C543.343924,276.04104 543.40819,275.937967 543.446749,275.847778 C543.485309,275.757589 543.600988,275.371065 543.678107,275.13915 L543.870905,274.494943 C543.935171,274.263029 543.986584,274.031114 544.037997,273.786316 C544.08941,273.541517 544.102263,273.541517 544.127969,273.412675 C544.133264,273.326863 544.133264,273.240805 544.127969,273.154993 C544.17905,272.912341 544.21766,272.667219 544.243648,272.420597 C544.243648,272.21445 544.307914,271.99542 544.333621,271.789274 C544.359327,271.583127 544.333621,271.299676 544.333621,271.054878 C544.333621,270.810079 544.333621,270.771426 544.333621,270.629701 L544.333621,270.178756 L544.333621,248.752429 C544.4493,248.971459 544.436447,249.25491 544.41074,249.56413 Z" id="Path" fill="url(#linearGradient-2)" fill-rule="nonzero"></path>
                            <path d="M530.146038,233.978906 C549.092038,244.933166 549.207719,262.675981 530.3774,273.630241 L307.279893,403.319935 C288.436721,414.261338 257.794072,414.261338 238.848072,403.319935 L14.2852703,273.630241 C-4.67358335,262.688839 -4.77641103,244.933166 14.0667615,233.978906 L237.164268,104.289212 C255.994587,93.3478094 286.624383,93.3478094 305.583237,104.289212 L530.146038,233.978906 Z" id="Path" fill="#FFFFFF" fill-rule="nonzero"></path>
                            <path d="M530.146038,229.444574 C549.092038,240.398666 549.207719,258.14121 530.3774,269.095303 L307.279893,398.783014 C288.436721,409.737107 257.794072,409.72425 238.848072,398.783014 L14.2852703,269.095303 C-4.67358335,258.154067 -4.77641103,240.398666 14.0667615,229.444574 L237.164268,99.7568622 C255.994587,88.8156267 286.624383,88.8156267 305.583237,99.7568622 L530.146038,229.444574 Z" id="Path" fill="#F3F8FF" fill-rule="nonzero"></path>
                            <path d="M283.739102,129.729262 C281.330394,130.794335 278.476473,130.794335 276.067765,129.729262 C273.942597,128.60905 273.955556,126.951136 276.067765,125.886935 C278.481512,124.823551 281.338313,124.823551 283.75206,125.886935 C285.890186,126.951136 285.877228,128.66506 283.739102,129.729262 Z" id="Path" fill="#E4EDF9" fill-rule="nonzero"></path>
                            <path d="M255.667274,146.046351 C253.251725,147.109983 250.392791,147.109983 247.977242,146.046351 C245.863455,144.925878 245.876423,143.267578 247.977242,142.203129 C250.392791,141.139498 253.251725,141.139498 255.667274,142.203129 C257.806996,143.267578 257.794028,144.981902 255.667274,146.046351 Z" id="Path" fill="#E4EDF9" fill-rule="nonzero"></path>
                            <path d="M227.575134,162.36292 C225.166427,163.425804 222.312505,163.425804 219.903797,162.36292 C217.77863,161.245011 217.791588,159.579326 219.903797,158.517312 C222.317544,157.456114 225.174346,157.456114 227.588093,158.517312 C229.726219,159.579326 229.71326,161.300906 227.575134,162.36292 Z" id="Path" fill="#E4EDF9" fill-rule="nonzero"></path>
                            <path d="M200.409177,177.771923 C197.993628,178.835554 195.134694,178.835554 192.719144,177.771923 C190.605358,176.718678 190.618326,174.99315 192.719144,173.928701 C195.134694,172.865069 197.993628,172.865069 200.409177,173.928701 C202.548899,175.049174 202.535931,176.718678 200.409177,177.771923 Z" id="Path" fill="#E4EDF9" fill-rule="nonzero"></path>
                            <path d="M300.520561,145.148489 C298.402985,144.08464 298.415976,142.360084 300.520561,141.296235 C302.94044,140.233202 305.804499,140.233202 308.224379,141.296235 C310.341954,142.416076 310.328963,144.08464 308.224379,145.148489 C305.801494,146.200677 302.943445,146.200677 300.520561,145.148489 Z" id="Path" fill="#E4EDF9" fill-rule="nonzero"></path>
                            <path d="M272.447369,160.548575 C270.318074,159.428624 270.331058,157.771096 272.447369,156.707143 C274.860754,155.642318 277.720218,155.642318 280.133603,156.707143 C282.262897,157.827094 282.249914,159.484621 280.133603,160.548575 C277.720218,161.6134 274.860754,161.6134 272.447369,160.548575 L272.447369,160.548575 Z" id="Path" fill="#E4EDF9" fill-rule="nonzero"></path>
                            <path d="M245.262464,176.865478 C243.144888,175.745005 243.157879,174.0755 245.262464,173.022256 C247.682343,171.958624 250.546402,171.958624 252.966281,173.022256 C255.083857,174.0755 255.070866,175.801029 252.966281,176.865478 C250.546402,177.92911 247.682343,177.92911 245.262464,176.865478 L245.262464,176.865478 Z" id="Path" fill="#E4EDF9" fill-rule="nonzero"></path>
                            <path d="M218.095142,192.282774 C215.965848,191.163442 215.978831,189.495638 218.095142,188.432273 C220.508527,187.368037 223.367991,187.368037 225.781376,188.432273 C227.91067,189.551604 227.897687,191.219409 225.781376,192.282774 C223.364957,193.336096 220.511562,193.336096 218.095142,192.282774 L218.095142,192.282774 Z" id="Path" fill="#E4EDF9" fill-rule="nonzero"></path>
                            <path d="M325.893013,159.649602 C323.764671,158.530548 323.777649,156.863159 325.893013,155.800058 C328.305318,154.736086 331.163503,154.736086 333.575808,155.800058 C335.70415,156.919111 335.70415,158.586501 333.575808,159.649602 C331.160969,160.704464 328.307853,160.704464 325.893013,159.649602 L325.893013,159.649602 Z" id="Path" fill="#E4EDF9" fill-rule="nonzero"></path>
                            <path d="M297.801531,175.05013 C295.685852,173.986245 295.698832,172.272829 297.801531,171.208944 C300.219244,170.145875 303.080738,170.145875 305.49845,171.208944 C307.61413,172.272829 307.627109,173.997444 305.49845,175.061329 C303.077656,176.117239 300.218184,176.113078 297.801531,175.05013 Z" id="Path" fill="#E4EDF9" fill-rule="nonzero"></path>
                            <path d="M270.634441,191.366139 C268.506734,190.246259 268.519708,188.588837 270.634441,187.524952 C273.051072,186.461884 275.911287,186.461884 278.327918,187.524952 C280.442651,188.644831 280.442651,190.313452 278.327918,191.377337 C275.908206,192.433247 273.050013,192.429087 270.634441,191.366139 Z" id="Path" fill="#E4EDF9" fill-rule="nonzero"></path>
                            <path d="M243.449305,206.782129 C241.333625,205.719335 241.346605,203.996491 243.449305,202.933697 C245.867017,201.87172 248.728511,201.87172 251.146224,202.933697 C253.261903,204.052427 253.274883,205.730522 251.146224,206.782129 C248.7275,207.840469 245.868029,207.840469 243.449305,206.782129 Z" id="Path" fill="#E4EDF9" fill-rule="nonzero"></path>
                            <path d="M350.349144,174.149534 C348.223973,173.02999 348.236932,171.361868 350.349144,170.298301 C352.768923,169.24083 355.626628,169.24083 358.046408,170.298301 C360.15862,171.417845 360.15862,173.085967 358.046408,174.138339 C355.631226,175.208415 352.768481,175.212578 350.349144,174.149534 L350.349144,174.149534 Z" id="Path" fill="#E4EDF9" fill-rule="nonzero"></path>
                            <path d="M323.177886,189.560293 C321.052715,188.442432 321.052715,186.77682 323.177886,185.714852 C325.594634,184.648064 328.458402,184.648064 330.87515,185.714852 C332.987362,186.832713 332.974404,188.487147 330.87515,189.549114 C328.459969,190.61758 325.597224,190.621738 323.177886,189.560293 L323.177886,189.560293 Z" id="Path" fill="#E4EDF9" fill-rule="nonzero"></path>
                            <path d="M295.996206,205.737855 C293.871986,204.434036 293.884939,202.491344 295.996206,201.252716 C298.413401,200.014861 301.272834,200.014861 303.690028,201.252716 C305.814249,202.491344 305.801296,204.499226 303.690028,205.737855 C301.273849,206.979967 298.412385,206.979967 295.996206,205.737855 Z" id="Path" fill="#E4EDF9" fill-rule="nonzero"></path>
                            <path d="M267.915643,222.199716 C265.789523,221.080795 265.802487,219.402414 267.915643,218.339439 C270.336504,217.282557 273.195486,217.282557 275.616347,218.339439 C277.729503,219.45836 277.716539,221.125552 275.616347,222.188527 C273.197048,223.247132 270.339058,223.251285 267.915643,222.199716 L267.915643,222.199716 Z" id="Path" fill="#E4EDF9" fill-rule="nonzero"></path>
                            <path d="M164.721925,194.024194 C163.904518,193.665012 163.327512,192.949935 163.179266,192.112397 C162.806457,191.156499 163.28211,190.1401 164.631936,189.402002 C167.026525,188.253387 169.860651,188.253387 172.25524,189.402002 C173.058592,189.758914 173.63202,190.456063 173.797898,191.277498 C174.183563,192.233397 173.70791,193.273995 172.345228,194.024194 C169.95064,195.172809 167.116513,195.172809 164.721925,194.024194 L164.721925,194.024194 Z" id="Path" fill="#E4EDF9" fill-rule="nonzero"></path>
                            <path d="M137.463172,211.312025 C135.346544,210.249764 135.35953,208.527783 137.463172,207.465522 C139.881968,206.404077 142.744745,206.404077 145.163541,207.465522 C147.280169,208.527783 147.280169,210.249764 145.163541,211.312025 C142.744745,212.373469 139.881968,212.373469 137.463172,211.312025 L137.463172,211.312025 Z" id="Path" fill="#E4EDF9" fill-rule="nonzero"></path>
                            <path d="M110.291924,225.813503 C108.175297,224.760258 108.175297,223.03473 110.291924,221.970281 C112.71072,220.906649 115.573498,220.906649 117.992294,221.970281 C120.108922,223.090754 120.095936,224.749054 117.992294,225.813503 C115.573498,226.877134 112.71072,226.877134 110.291924,225.813503 L110.291924,225.813503 Z" id="Path" fill="#E4EDF9" fill-rule="nonzero"></path>
                            <path d="M82.2050746,243.035956 C80.0884469,241.971507 80.1014324,240.257183 82.2050746,239.192734 C84.6238708,238.129103 87.486648,238.129103 89.9054442,239.192734 C92.0220719,240.313207 92.0220719,241.971507 89.9054442,243.035956 C87.486648,244.099588 84.6238708,244.099588 82.2050746,243.035956 Z" id="Path" fill="#E4EDF9" fill-rule="nonzero"></path>
                            <path d="M54.1279566,258.44716 C52.0113289,257.32899 52.0113289,255.662918 54.1279566,254.600657 C56.5467528,253.539213 59.40953,253.539213 61.8283262,254.600657 C63.9449539,255.718827 63.9319685,257.384899 61.8283262,258.44716 C59.40953,259.508604 56.5467528,259.508604 54.1279566,258.44716 Z" id="Path" fill="#E4EDF9" fill-rule="nonzero"></path>
                            <path d="M190.078751,209.433757 C189.267664,209.069849 188.696492,208.356118 188.548812,207.52196 C188.163113,206.578162 188.651665,205.549664 190.001611,204.811565 C192.396412,203.66295 195.23079,203.66295 197.625591,204.811565 C198.42542,205.169897 198.99432,205.867291 199.15553,206.687062 C199.554086,207.64296 199.07839,208.695658 197.702731,209.433757 C195.30793,210.582372 192.473552,210.582372 190.078751,209.433757 Z" id="Path" fill="#E4EDF9" fill-rule="nonzero"></path>
                            <path d="M162.828253,224.907508 C160.710677,223.787666 160.723669,222.119103 162.828253,221.055253 C165.251138,220.003065 168.109186,220.003065 170.532071,221.055253 C172.649646,222.175095 172.636655,223.843658 170.532071,224.907508 C168.112192,225.97054 165.248132,225.97054 162.828253,224.907508 Z" id="Path" fill="#E4EDF9" fill-rule="nonzero"></path>
                            <path d="M135.651431,240.325204 C133.534803,239.261355 133.547789,237.536799 135.651431,236.47295 C138.070227,235.409918 140.933004,235.409918 143.3518,236.47295 C145.468428,237.536799 145.468428,239.261355 143.3518,240.325204 C140.93,241.377392 138.073231,241.377392 135.651431,240.325204 Z" id="Path" fill="#E4EDF9" fill-rule="nonzero"></path>
                            <path d="M107.570156,256.63263 C105.45258,255.512157 105.465571,253.853857 107.570156,252.789408 C109.990035,251.725776 112.854094,251.725776 115.273974,252.789408 C117.391549,253.909881 117.378558,255.56818 115.273974,256.63263 C112.854094,257.696261 109.990035,257.696261 107.570156,256.63263 Z" id="Path" fill="#E4EDF9" fill-rule="nonzero"></path>
                            <path d="M80.3926246,272.042193 C78.2769453,270.977744 78.2899249,269.252216 80.3926246,268.198971 C82.8103369,267.13534 85.6718313,267.13534 88.0895436,268.198971 C90.2182024,269.252216 90.2052228,270.977744 88.0895436,272.042193 C85.6718313,273.105825 82.8103369,273.105825 80.3926246,272.042193 L80.3926246,272.042193 Z" id="Path" fill="#E4EDF9" fill-rule="nonzero"></path>
                            <path d="M215.449503,223.931534 C214.629692,223.576105 214.051689,222.860047 213.907801,222.0216 C213.535223,221.078721 214.010581,220.051224 215.372417,219.313845 C217.765521,218.166348 220.59789,218.166348 222.990994,219.313845 C223.794893,219.672635 224.364556,220.375283 224.519848,221.199603 C224.918121,222.15457 224.442763,223.206243 223.080926,223.943622 C220.681283,225.087488 217.845039,225.082995 215.449503,223.931534 L215.449503,223.931534 Z" id="Path" fill="#E4EDF9" fill-rule="nonzero"></path>
                            <path d="M188.1905,239.410032 C186.075767,238.289594 186.088741,236.620141 188.1905,235.56693 C190.607131,234.503331 193.467346,234.503331 195.883977,235.56693 C198.011684,236.620141 198.011684,238.35682 195.883977,239.421236 C193.463272,240.474055 190.60708,240.469895 188.1905,239.410032 L188.1905,239.410032 Z" id="Path" fill="#E4EDF9" fill-rule="nonzero"></path>
                            <path d="M160.109933,255.730154 C157.993305,254.611424 158.006291,252.944516 160.109933,251.881722 C162.528729,250.819745 165.391506,250.819745 167.810302,251.881722 C169.92693,253.000452 169.92693,254.66736 167.810302,255.730154 C165.390494,256.788493 162.529741,256.788493 160.109933,255.730154 Z" id="Path" fill="#E4EDF9" fill-rule="nonzero"></path>
                            <path d="M132.03484,271.13329 C129.909036,270.013411 129.921998,268.355989 132.03484,267.292104 C134.44931,266.229035 137.306967,266.229035 139.721436,267.292104 C141.84724,268.411983 141.84724,270.080604 139.721436,271.144489 C137.303889,272.200399 134.448252,272.196238 132.03484,271.13329 L132.03484,271.13329 Z" id="Path" fill="#E4EDF9" fill-rule="nonzero"></path>
                            <path d="M105.757706,287.449299 C103.641078,286.329419 103.654064,284.671998 105.757706,283.608112 C108.176502,282.545044 111.03928,282.545044 113.458076,283.608112 C115.574703,284.727992 115.574703,286.396612 113.458076,287.460498 C111.036196,288.516407 108.175442,288.512247 105.757706,287.449299 L105.757706,287.449299 Z" id="Path" fill="#E4EDF9" fill-rule="nonzero"></path>
                            <path d="M239.920045,238.447463 C239.093822,238.091366 238.51099,237.370862 238.366369,236.526787 C237.994,235.584568 238.469091,234.557792 239.817323,233.820928 C242.212053,232.668145 245.049731,232.668145 247.444462,233.820928 C248.246865,234.177243 248.819615,234.873225 248.985298,235.693286 C249.370507,236.647584 248.895416,237.69852 247.534344,238.435384 C245.14464,239.585872 242.31386,239.590363 239.920045,238.447463 Z" id="Path" fill="#E4EDF9" fill-rule="nonzero"></path>
                            <path d="M213.562706,254.68588 C211.437536,253.38206 211.450494,251.439369 213.562706,250.200741 C215.980982,248.962885 218.841695,248.962885 221.25997,250.200741 C223.372183,251.50456 223.372183,253.447251 221.25997,254.68588 C218.84271,255.927991 215.979966,255.927991 213.562706,254.68588 Z" id="Path" fill="#E4EDF9" fill-rule="nonzero"></path>
                            <path d="M185.489726,270.232695 C183.352554,269.11315 183.365506,267.445028 185.489726,266.381461 C187.908424,265.32399 190.764851,265.32399 193.183548,266.381461 C195.294816,267.501006 195.281864,269.169127 193.183548,270.221499 C190.769447,271.291575 187.907982,271.295738 185.489726,270.232695 L185.489726,270.232695 Z" id="Path" fill="#E4EDF9" fill-rule="nonzero"></path>
                            <path d="M157.398739,285.643453 C155.273568,284.525592 155.286527,282.85998 157.398739,281.798012 C159.815487,280.731224 162.679255,280.731224 165.096003,281.798012 C167.208215,282.915873 167.208215,284.570307 165.096003,285.632274 C162.680822,286.70074 159.818077,286.704898 157.398739,285.643453 Z" id="Path" fill="#E4EDF9" fill-rule="nonzero"></path>
                            <path d="M130.231629,301.821015 C128.094457,300.517196 128.107409,298.574504 130.231629,297.335876 C132.648824,296.098021 135.508257,296.098021 137.925451,297.335876 C140.036719,298.639695 140.023766,300.582387 137.925451,301.821015 C135.509272,303.063127 132.647808,303.063127 130.231629,301.821015 L130.231629,301.821015 Z" id="Path" fill="#E4EDF9" fill-rule="nonzero"></path>
                            <path d="M376.304736,189.486345 C376.044733,189.341262 375.798269,189.176639 375.567875,188.994165 C373.585048,187.763716 373.638638,186.004173 375.768837,184.884464 C378.269061,183.716267 381.226715,183.716267 383.726939,184.884464 C383.986942,185.029547 384.233406,185.19417 384.463801,185.376644 C386.446627,186.607093 386.37964,188.354331 384.249441,189.486345 C381.750796,190.642459 378.803381,190.642459 376.304736,189.486345 Z" id="Path" fill="#E4EDF9" fill-rule="nonzero"></path>
                            <path d="M348.229272,204.893495 C347.966691,204.756762 347.719807,204.596061 347.492372,204.413831 C345.50944,203.183924 345.549635,201.425156 347.679946,200.293641 C350.180303,199.125959 353.138112,199.125959 355.638469,200.293641 C355.905786,200.428351 356.153397,200.593659 356.375369,200.785604 C358.358301,202.015512 358.304708,203.749681 356.174396,204.881196 C353.680864,206.052575 350.727093,206.057148 348.229272,204.893495 L348.229272,204.893495 Z" id="Path" fill="#E4EDF9" fill-rule="nonzero"></path>
                            <path d="M321.046639,221.209503 C320.783676,221.068604 320.536814,220.903788 320.309777,220.71754 C318.326951,219.487633 318.380541,217.741164 320.51074,216.60965 C323.010964,215.441967 325.968618,215.441967 328.468842,216.60965 C328.731409,216.746382 328.978279,216.907084 329.205703,217.089313 C331.18853,218.319221 331.121543,220.065689 328.991344,221.197204 C326.497943,222.368583 323.544328,222.373156 321.046639,221.209503 L321.046639,221.209503 Z" id="Path" fill="#E4EDF9" fill-rule="nonzero"></path>
                            <path d="M293.877045,236.617646 C293.617028,236.472665 293.370551,236.308157 293.140145,236.125811 C291.157213,234.896223 291.197408,233.137911 293.327719,232.018986 C295.828076,230.851606 298.785886,230.851606 301.286242,232.018986 C301.550611,232.157882 301.797703,232.3228 302.023142,232.510821 C304.006074,233.74041 303.952481,235.486425 301.822169,236.617646 C299.32493,237.778872 296.374284,237.778872 293.877045,236.617646 L293.877045,236.617646 Z" id="Path" fill="#E4EDF9" fill-rule="nonzero"></path>
                            <path d="M401.978051,204.060465 C399.860475,202.942296 399.873466,201.276224 401.978051,200.213963 C404.39793,199.152518 407.261989,199.152518 409.681868,200.213963 C411.799444,201.332132 411.786453,202.998204 409.681868,204.060465 C407.261989,205.12191 404.39793,205.12191 401.978051,204.060465 L401.978051,204.060465 Z" id="Path" fill="#E4EDF9" fill-rule="nonzero"></path>
                            <path d="M373.895358,219.468389 C371.77873,218.347916 371.791716,216.689616 373.895358,215.625166 C376.314154,214.561535 379.176931,214.561535 381.595728,215.625166 C383.712355,216.745639 383.712355,218.403939 381.595728,219.468389 C379.176931,220.53202 376.314154,220.53202 373.895358,219.468389 L373.895358,219.468389 Z" id="Path" fill="#E4EDF9" fill-rule="nonzero"></path>
                            <path d="M345.814083,235.784397 C343.696507,234.663924 343.709499,233.005624 345.814083,231.941175 C348.233962,230.877543 351.098021,230.877543 353.517901,231.941175 C355.635476,233.005624 355.622485,234.719948 353.517901,235.784397 C351.098021,236.848028 348.233962,236.848028 345.814083,235.784397 Z" id="Path" fill="#E4EDF9" fill-rule="nonzero"></path>
                            <path d="M318.637261,251.1956 C316.520633,250.077431 316.533619,248.411359 318.637261,247.349098 C321.056057,246.287653 323.918834,246.287653 326.33763,247.349098 C328.454258,248.467267 328.454258,250.13334 326.33763,251.1956 C323.918834,252.257045 321.056057,252.257045 318.637261,251.1956 Z" id="Path" fill="#E4EDF9" fill-rule="nonzero"></path>
                            <path d="M426.442735,218.562393 C424.316931,217.442552 424.329893,215.773988 426.442735,214.710139 C428.860203,213.657951 431.711863,213.657951 434.129331,214.710139 C436.255135,215.82998 436.255135,217.509742 434.129331,218.562393 C431.714861,219.625425 428.857205,219.625425 426.442735,218.562393 L426.442735,218.562393 Z" id="Path" fill="#E4EDF9" fill-rule="nonzero"></path>
                            <path d="M399.25973,233.978942 C397.143103,232.859377 397.156088,231.191225 399.25973,230.127639 C401.678527,229.064869 404.541304,229.064869 406.9601,230.127639 C409.076728,231.247203 409.076728,232.915355 406.9601,233.978942 C404.538794,235.03266 401.681037,235.03266 399.25973,233.978942 Z" id="Path" fill="#E4EDF9" fill-rule="nonzero"></path>
                            <path d="M371.184638,250.28273 C369.058834,249.163412 369.071796,247.506822 371.184638,246.443471 C373.599107,245.380936 376.456764,245.380936 378.871234,246.443471 C380.997038,247.562788 380.997038,249.230571 378.871234,250.293923 C376.45469,251.352943 373.597032,251.348782 371.184638,250.28273 L371.184638,250.28273 Z" id="Path" fill="#E4EDF9" fill-rule="nonzero"></path>
                            <path d="M344.001633,265.698086 C341.885006,264.57737 341.897991,262.907503 344.001633,261.85403 C346.42043,260.790167 349.283207,260.790167 351.702003,261.85403 C353.818631,262.907503 353.818631,264.644613 351.702003,265.709293 C349.278636,266.760573 346.420878,266.756413 344.001633,265.698086 L344.001633,265.698086 Z" id="Path" fill="#E4EDF9" fill-rule="nonzero"></path>
                            <path d="M451.807344,233.067784 C449.681223,231.949381 449.694188,230.271778 451.807344,229.22048 C454.2267,228.158662 457.088691,228.158662 459.508047,229.22048 C461.621204,230.338882 461.608239,232.005302 459.508047,233.067784 C457.088187,234.127787 454.227204,234.127787 451.807344,233.067784 L451.807344,233.067784 Z" id="Path" fill="#E4EDF9" fill-rule="nonzero"></path>
                            <path d="M423.733654,248.479212 C421.596481,247.417244 421.609433,245.695739 423.733654,244.633771 C426.149321,243.566983 429.011808,243.566983 431.427476,244.633771 C433.538743,245.751632 433.525791,247.406065 431.427476,248.468033 C429.013374,249.536499 426.15191,249.540657 423.733654,248.479212 L423.733654,248.479212 Z" id="Path" fill="#E4EDF9" fill-rule="nonzero"></path>
                            <path d="M395.643376,264.79522 C393.517256,263.677359 393.53022,262.011747 395.643376,260.949779 C398.061204,259.882991 400.926252,259.882991 403.34408,260.949779 C405.457236,262.000568 405.444272,263.722074 403.34408,264.784041 C400.927819,265.852507 398.063795,265.856665 395.643376,264.79522 L395.643376,264.79522 Z" id="Path" fill="#E4EDF9" fill-rule="nonzero"></path>
                            <path d="M369.381427,280.972782 C367.244254,279.668963 367.257207,277.726272 369.381427,276.487643 C371.798621,275.249788 374.658054,275.249788 377.075249,276.487643 C379.186517,277.791463 379.173564,279.734154 377.075249,280.972782 C374.65907,282.214894 371.797606,282.214894 369.381427,280.972782 L369.381427,280.972782 Z" id="Path" fill="#E4EDF9" fill-rule="nonzero"></path>
                            <path d="M477.182771,243.723416 C479.599246,242.661841 482.457827,242.661841 484.874302,243.723416 C486.984941,244.785655 486.971992,246.507599 484.874302,247.569838 C482.46235,248.63126 479.607672,248.63126 477.19572,247.569838 C475.046235,246.507599 475.046235,244.785655 477.182771,243.723416 Z" id="Path" fill="#E4EDF9" fill-rule="nonzero"></path>
                            <path d="M449.091787,260.037583 C451.510846,258.978463 454.3677,258.978463 456.786758,260.037583 C458.898341,261.158873 458.898341,262.829595 456.786758,263.883607 C454.373727,264.948014 451.517773,264.948014 449.104742,263.883607 C446.96725,262.840808 446.96725,261.102808 449.091787,260.037583 Z" id="Path" fill="#E4EDF9" fill-rule="nonzero"></path>
                            <path d="M421.920541,275.450628 C424.338093,274.386866 427.197949,274.386866 429.615501,275.450628 C431.727081,276.515055 431.714127,278.229342 429.615501,279.293769 C427.202473,280.357378 424.346523,280.357378 421.933495,279.293769 C419.796006,278.240547 419.783052,276.515055 421.920541,275.450628 Z" id="Path" fill="#E4EDF9" fill-rule="nonzero"></path>
                            <path d="M393.83369,291.76152 C396.252749,290.70458 399.109602,290.70458 401.528661,291.76152 C403.640244,292.880503 403.640244,294.547788 401.528661,295.610822 C399.11563,296.673039 396.259676,296.673039 393.846645,295.610822 C391.709153,294.592547 391.709153,292.880503 393.83369,291.76152 Z" id="Path" fill="#E4EDF9" fill-rule="nonzero"></path>
                            <path d="M365.739873,307.236139 C368.137494,306.092458 370.969031,306.092458 373.366652,307.236139 C374.165427,307.594712 374.733578,308.292577 374.894576,309.112901 C375.292606,310.081553 374.817537,311.122853 373.44369,311.86145 C371.052043,313.01084 368.221398,313.01084 365.829751,311.86145 C365.009991,311.499681 364.433122,310.778878 364.288987,309.936255 C363.903797,309.003928 364.378865,307.938411 365.739873,307.236139 Z" id="Path" fill="#E4EDF9" fill-rule="nonzero"></path>
                            <path d="M265.885419,252.995057 C265.617686,252.873783 265.37176,252.719753 265.1553,252.537764 C264.389554,252.201457 263.86025,251.566694 263.734885,250.834347 C263.349913,249.942625 263.841084,248.970877 265.234949,248.273504 C267.712298,247.188111 270.642891,247.188111 273.12024,248.273504 C273.380797,248.404474 273.6254,248.557675 273.85036,248.730798 C274.59224,249.063432 275.108737,249.677689 275.244224,250.388486 C275.655746,251.29164 275.164575,252.286253 273.74416,252.983625 C271.278742,254.074177 268.355101,254.07843 265.885419,252.995057 L265.885419,252.995057 Z" id="Path" fill="#E4EDF9" fill-rule="nonzero"></path>
                            <path d="M238.613389,269.251083 C238.35031,269.110184 238.103339,268.945368 237.876203,268.75912 C235.892502,267.590708 235.946116,265.782744 238.077254,264.65123 C240.57858,263.483547 243.537536,263.483547 246.038862,264.65123 C246.301545,264.787962 246.548524,264.948664 246.776048,265.130893 C248.746345,266.360801 248.692732,268.107269 246.561594,269.238784 C244.067095,270.410164 241.112179,270.414736 238.613389,269.251083 L238.613389,269.251083 Z" id="Path" fill="#E4EDF9" fill-rule="nonzero"></path>
                            <path d="M210.537247,285.569635 C210.272843,285.430639 210.02572,285.265601 209.800251,285.077444 C207.817064,283.846965 207.857263,282.08738 209.98785,280.967645 C212.488529,279.79942 215.446721,279.79942 217.9474,280.967645 C218.207451,281.112731 218.453959,281.277358 218.684396,281.459836 C220.667583,282.690315 220.613983,284.437595 218.469997,285.569635 C215.975565,286.725575 213.031679,286.725575 210.537247,285.569635 L210.537247,285.569635 Z" id="Path" fill="#E4EDF9" fill-rule="nonzero"></path>
                            <path d="M183.355292,300.976655 C183.092609,300.839922 182.84563,300.679221 182.618106,300.496991 C180.634405,299.267084 180.688019,297.508316 182.819156,296.376801 C185.320482,295.209119 188.279439,295.209119 190.780765,296.376801 C191.043844,296.5177 191.290815,296.682517 191.517951,296.868764 C193.488248,298.098672 193.434635,299.832841 191.303497,300.964356 C188.808998,302.135735 185.854082,302.140308 183.355292,300.976655 L183.355292,300.976655 Z" id="Path" fill="#E4EDF9" fill-rule="nonzero"></path>
                            <path d="M156.18502,317.291463 C155.917668,317.156783 155.670025,316.991511 155.448024,316.799608 C153.464837,315.56997 153.505037,313.823884 155.635623,312.692618 C158.136302,311.525191 161.094494,311.525191 163.595173,312.692618 C163.857788,312.82932 164.104704,312.989987 164.332169,313.172176 C166.315356,314.401814 166.261757,316.1479 164.11777,317.279166 C161.629134,318.452142 158.67796,318.456717 156.18502,317.291463 L156.18502,317.291463 Z" id="Path" fill="#E4EDF9" fill-rule="nonzero"></path>
                            <path d="M291.541434,268.352676 C290.72585,267.991823 290.149778,267.277565 289.999509,266.440879 C289.626877,265.497081 290.115153,264.468583 291.464338,263.730484 C293.857789,262.581869 296.690569,262.581869 299.08402,263.730484 C299.883398,264.088815 300.451978,264.78621 300.613097,265.605981 C301.011427,266.561879 300.536,267.614577 299.161117,268.352676 C296.767666,269.501291 293.934886,269.501291 291.541434,268.352676 Z" id="Path" fill="#E4EDF9" fill-rule="nonzero"></path>
                            <path d="M263.388664,283.828597 C261.25937,282.763838 261.272353,281.037807 263.388664,279.984255 C265.80205,278.918623 268.661513,278.918623 271.074898,279.984255 C273.204193,281.037807 273.191209,282.763838 271.074898,283.828597 C268.659984,284.888735 265.803579,284.888735 263.388664,283.828597 L263.388664,283.828597 Z" id="Path" fill="#E4EDF9" fill-rule="nonzero"></path>
                            <path d="M236.203759,299.23718 C234.086183,298.119011 234.099175,296.452939 236.203759,295.390678 C238.623638,294.329233 241.487698,294.329233 243.907577,295.390678 C246.025153,296.508847 246.012161,298.17492 243.907577,299.23718 C241.487698,300.298625 238.623638,300.298625 236.203759,299.23718 Z" id="Path" fill="#E4EDF9" fill-rule="nonzero"></path>
                            <path d="M208.130567,315.554169 C206.001273,314.500618 206.014256,312.774586 208.130567,311.709827 C210.543952,310.644195 213.403416,310.644195 215.816801,311.709827 C217.946096,312.830626 217.933112,314.48941 215.816801,315.554169 C213.401887,316.614307 210.545482,316.614307 208.130567,315.554169 L208.130567,315.554169 Z" id="Path" fill="#E4EDF9" fill-rule="nonzero"></path>
                            <path d="M180.039791,331.867557 C177.922216,330.747084 177.935207,329.088784 180.039791,328.024335 C182.459671,326.960703 185.32373,326.960703 187.743609,328.024335 C189.861185,329.144808 189.848194,330.803108 187.743609,331.867557 C185.32373,332.931189 182.459671,332.931189 180.039791,331.867557 L180.039791,331.867557 Z" id="Path" fill="#E4EDF9" fill-rule="nonzero"></path>
                            <path d="M316.001236,282.850453 C315.181435,282.495024 314.603439,281.778966 314.459553,280.940519 C314.08698,279.99764 314.562332,278.970143 315.911304,278.232763 C318.304379,277.085267 321.136712,277.085267 323.529786,278.232763 C324.337241,278.590142 324.911471,279.292529 325.071469,280.118521 C325.469737,281.073489 324.994385,282.125161 323.632565,282.862541 C321.232951,284.006407 318.396743,284.001914 316.001236,282.850453 Z" id="Path" fill="#E4EDF9" fill-rule="nonzero"></path>
                            <path d="M289.648697,298.326638 C287.533018,297.206758 287.545998,295.549336 289.648697,294.485451 C292.06641,293.422383 294.927904,293.422383 297.345616,294.485451 C299.461296,295.60533 299.474275,297.273951 297.345616,298.337836 C294.924822,299.393746 292.06535,299.389586 289.648697,298.326638 Z" id="Path" fill="#E4EDF9" fill-rule="nonzero"></path>
                            <path d="M261.575737,314.647885 C259.44803,313.583501 259.461003,311.858079 261.575737,310.793695 C263.995369,309.740979 266.849581,309.740979 269.269213,310.793695 C271.383946,311.858079 271.383946,313.594705 269.269213,314.647885 C266.851571,315.707808 263.993379,315.707808 261.575737,314.647885 L261.575737,314.647885 Z" id="Path" fill="#E4EDF9" fill-rule="nonzero"></path>
                            <path d="M233.48473,330.062102 C231.369051,328.942537 231.38203,327.274385 233.48473,326.210799 C235.902442,325.148029 238.763937,325.148029 241.181649,326.210799 C243.297328,327.330363 243.310308,328.998515 241.181649,330.062102 C238.761428,331.115821 235.904951,331.115821 233.48473,330.062102 L233.48473,330.062102 Z" id="Path" fill="#E4EDF9" fill-rule="nonzero"></path>
                            <path d="M206.313481,346.368218 C204.1978,345.304332 204.1978,343.590916 206.313481,342.527031 C208.731195,341.463963 211.592691,341.463963 214.010405,342.527031 C216.126086,343.64691 216.126086,345.315531 214.010405,346.379416 C211.58961,347.435326 208.730136,347.431166 206.313481,346.368218 Z" id="Path" fill="#E4EDF9" fill-rule="nonzero"></path>
                            <path d="M341.369998,297.366382 C340.550127,297.005462 339.973179,296.286351 339.829025,295.445706 C339.443782,294.503487 339.931757,293.476711 341.280108,292.739847 C343.675051,291.587064 346.512981,291.587064 348.907924,292.739847 C349.706807,293.097579 350.275036,293.793806 350.436055,294.612205 C350.83414,295.566503 350.359007,296.617439 348.984972,297.354302 C346.595056,298.504791 343.764026,298.509282 341.369998,297.366382 L341.369998,297.366382 Z" id="Path" fill="#E4EDF9" fill-rule="nonzero"></path>
                            <path d="M314.115036,312.8368 C311.988916,311.718939 312.00188,310.053327 314.115036,308.991359 C316.532864,307.924571 319.397912,307.924571 321.81574,308.991359 C323.928896,310.042148 323.915932,311.763654 321.81574,312.825621 C319.399479,313.894087 316.535455,313.898245 314.115036,312.8368 L314.115036,312.8368 Z" id="Path" fill="#E4EDF9" fill-rule="nonzero"></path>
                            <path d="M286.031632,329.014362 C283.907411,327.710543 283.920364,325.754813 286.031632,324.529223 C288.448826,323.291368 291.308259,323.291368 293.725454,324.529223 C295.849674,325.833043 295.836721,327.775734 293.725454,329.014362 C291.309274,330.256474 288.447811,330.256474 286.031632,329.014362 Z" id="Path" fill="#E4EDF9" fill-rule="nonzero"></path>
                            <path d="M258.856939,344.562372 C256.730819,343.444511 256.743783,341.778899 258.856939,340.716931 C261.274767,339.650143 264.139815,339.650143 266.557643,340.716931 C268.670799,341.778899 268.657835,343.489226 266.557643,344.551193 C264.141382,345.619659 261.277358,345.623817 258.856939,344.562372 L258.856939,344.562372 Z" id="Path" fill="#E4EDF9" fill-rule="nonzero"></path>
                            <path d="M231.679405,360.87838 C229.555185,359.760519 229.568137,358.094907 231.679405,357.032939 C234.095072,355.966151 236.95756,355.966151 239.373227,357.032939 C241.497447,358.1508 241.484494,359.805234 239.373227,360.867201 C236.959126,361.935667 234.097661,361.939825 231.679405,360.87838 L231.679405,360.87838 Z" id="Path" fill="#E4EDF9" fill-rule="nonzero"></path>
                            <path d="M339.454435,323.492023 C341.877763,322.428508 344.744452,322.428508 347.16778,323.492023 C349.29739,324.612211 349.284404,326.270089 347.16778,327.334268 C344.754037,328.399319 341.894149,328.399319 339.480406,327.334268 C337.363781,326.281291 337.363781,324.556201 339.454435,323.492023 Z" id="Path" fill="#E4EDF9" fill-rule="nonzero"></path>
                            <path d="M311.400191,339.806576 C313.818826,338.745001 316.679964,338.745001 319.098599,339.806576 C321.211126,340.924722 321.198165,342.590759 319.098599,343.652998 C316.68449,344.71442 313.82726,344.71442 311.413151,343.652998 C309.274704,342.590759 309.274704,340.868815 311.400191,339.806576 Z" id="Path" fill="#E4EDF9" fill-rule="nonzero"></path>
                            <path d="M283.315412,355.214113 C285.733747,354.15524 288.589745,354.15524 291.00808,355.214113 C293.131982,356.335141 293.119031,358.005474 291.00808,359.059241 C288.600807,360.12509 285.748586,360.12509 283.341313,359.059241 C281.19151,357.983053 281.19151,356.245459 283.315412,355.214113 Z" id="Path" fill="#E4EDF9" fill-rule="nonzero"></path>
                            <path d="M256.142094,371.533788 C258.560729,370.470026 261.421867,370.470026 263.840502,371.533788 C265.953028,372.654238 265.940068,374.312503 263.840502,375.376929 C261.426393,376.440538 258.569163,376.440538 256.155054,375.376929 C254.016607,374.323707 254.016607,372.598215 256.142094,371.533788 Z" id="Path" fill="#E4EDF9" fill-rule="nonzero"></path>
                            <path d="M530.146038,229.444574 C549.092038,240.398666 549.207719,258.14121 530.3774,269.095303 L307.279893,398.783014 C288.436721,409.737107 257.794072,409.72425 238.848072,398.783014 L14.2852703,269.095303 C-4.67358335,258.154067 -4.77641103,240.398666 14.0667615,229.444574 L237.164268,99.7568622 C255.994587,88.8156267 286.624383,88.8156267 305.583237,99.7568622 L530.146038,229.444574 Z" id="Path" fill="url(#linearGradient-3)" fill-rule="nonzero"></path>
                            <polygon id="Path" fill="#F3F8FF" fill-rule="nonzero" points="254.212455 182.195426 161.244939 236.105084 337.320946 338.10395 430.288462 284.194293"></polygon>
                            <line x1="326.566296" y1="310.004158" x2="326.566296" y2="356.232848" id="Path" stroke="#B8D9F4" stroke-width="1.33" stroke-linecap="round"></line>
                            <line x1="437.98836" y1="242.02079" x2="437.98836" y2="288.24948" id="Path" stroke="#B8D9F4" stroke-width="1.33" stroke-linecap="round"></line>
                            <polygon id="Path" fill="url(#linearGradient-4)" fill-rule="nonzero" points="335.172065 162.678311 360.662656 147.75052 409.453441 175.438541 383.96285 190.35343"></polygon>
                            <polygon id="Path" fill="#F3F8FF" fill-rule="nonzero" points="324.301619 122.338245 355.38352 104.241164 414.888664 137.811443 383.793919 155.908524"></polygon>
                            <polygon id="Path" fill="#B8D9F4" fill-rule="nonzero" points="384.203141 156.498473 414.888664 138.686071 414.774591 152.59924 384.089069 170.411642"></polygon>
                            <polygon id="Path" fill="#E4EDF9" fill-rule="nonzero" points="324.301619 136.605084 324.417561 122.370062 384.089069 156.17662 383.973127 170.411642"></polygon>
                            <polygon id="Path" fill="#F3F8FF" fill-rule="nonzero" points="124.104251 280.966104 155.198996 262.869023 214.691296 296.439301 183.596551 314.536383"></polygon>
                            <polygon id="Path" fill="url(#linearGradient-4)" fill-rule="nonzero" points="134.974696 325.825492 160.469684 310.910603 209.256073 338.585722 183.761085 353.513514"></polygon>
                            <polygon id="Path" fill="#B8D9F4" fill-rule="nonzero" points="183.099949 315.126331 213.785425 297.313929 213.671306 311.227099 182.98583 329.039501"></polygon>
                            <polygon id="Path" fill="#E4EDF9" fill-rule="nonzero" points="123.198381 295.232943 123.301462 280.997921 182.98583 314.804479 182.882748 329.039501"></polygon>
                            <path d="M183.914693,281.489432 C174.3471,275.999711 158.859157,275.999711 149.330091,281.489432 C139.801025,286.979152 139.865237,295.882435 149.445673,301.359418 C159.026108,306.836401 174.514051,306.849139 184.030275,301.359418 C193.546499,295.869698 193.507972,286.979152 183.914693,281.489432" id="Path" fill="#E4EDF9" fill-rule="nonzero"></path>
                            <path d="M268.992218,312.150729 C261.724242,308.080041 249.958885,308.080041 242.729568,312.150729 C235.500252,316.221418 235.551798,322.826922 242.819774,326.89761 C250.087749,330.968299 261.853107,330.955812 269.082423,326.89761 C276.31174,322.839409 276.27308,316.221418 268.992218,312.150729" id="Path" fill="#E4EDF9" fill-rule="nonzero"></path>
                            <path d="M256.310742,300.366946 C249.043708,296.296257 237.279873,296.296257 230.051493,300.366946 C222.823113,304.437634 222.861768,311.043138 230.141687,315.113827 C237.421606,319.184515 249.172556,319.172028 256.400936,315.113827 C263.629316,311.055625 263.590662,304.437634 256.310742,300.366946" id="Path" fill="#E4EDF9" fill-rule="nonzero"></path>
                            <path d="M240.961538,308.76341 C240.961538,308.76341 242.899503,323.473251 245.717202,324.414371 C248.534901,325.355491 269.278775,318.896569 270.770498,316.331049 C272.262221,313.765529 253.57106,314.113615 253.57106,314.113615 L252.219584,306.378378 L240.961538,308.76341 Z" id="Path" fill="#1659A8" fill-rule="nonzero"></path>
                            <path d="M253.643725,312.255034 C253.643725,312.255034 247.155024,317.600746 240.576558,314.447161 C233.998092,311.293576 243.423379,308.434838 243.423379,308.434838 L253.566784,308.191268 L253.643725,312.255034 Z" id="Path" fill="#FFFFFF" fill-rule="nonzero"></path>
                            <path d="M227.373482,299.942255 C227.373482,299.942255 230.932684,313.90647 233.821312,314.506007 C236.70994,315.105544 256.904544,306.662065 258.116736,304.0266 C259.328928,301.391136 240.578638,303.751812 240.578638,303.751812 L238.373482,296.407484 L227.373482,299.942255 Z" id="Path" fill="#1659A8" fill-rule="nonzero"></path>
                            <path d="M241.867409,302.668934 C241.867409,302.668934 235.974688,309.327605 229.063313,306.649969 C222.151937,303.972333 231.229565,299.722117 231.229565,299.722117 L241.33874,298.220374 L241.867409,302.668934 Z" id="Path" fill="#FFFFFF" fill-rule="nonzero"></path>
                            <path d="M169.397773,255.410934 C169.397773,255.410934 216.5602,230.237006 225.721798,230.237006 C234.883397,230.237006 238.243927,302.263843 238.243927,302.263843 C238.243927,302.263843 230.820094,306.029615 228.021781,303.927489 C226.015685,302.431497 209.532474,263.948403 209.532474,263.948403 L169.397773,255.410934 Z" id="Path" fill="#1D86DD" fill-rule="nonzero"></path>
                            <path d="M146.095518,258.534347 C144.159065,267.314765 143.51358,283.468151 153.608957,290.686171 C163.704334,297.904191 180.190008,303.908447 196.882236,292.261481 C213.574465,280.614515 229.866493,269.94889 229.866493,269.94889 C229.866493,269.94889 234.449433,297.219835 241.188291,312.908376 C245.117594,314.377031 249.535853,313.568584 252.690824,310.803658 C253.168483,310.403374 249.96688,240.198768 244.94501,236.118456 C239.923141,232.038145 191.240702,257.501356 191.240702,257.501356 L146.095518,258.534347 Z" id="Path" fill="#328DEA" fill-rule="nonzero"></path>
                            <path d="M146.095518,258.534347 C144.159065,267.314765 143.51358,283.468151 153.608957,290.686171 C163.704334,297.904191 180.190008,303.908447 196.882236,292.261481 C213.574465,280.614515 229.866493,269.94889 229.866493,269.94889 C229.866493,269.94889 234.449433,297.219835 241.188291,312.908376 C245.117594,314.377031 249.535853,313.568584 252.690824,310.803658 C253.168483,310.403374 249.96688,240.198768 244.94501,236.118456 C239.923141,232.038145 191.240702,257.501356 191.240702,257.501356 L146.095518,258.534347 Z" id="Path" fill="url(#linearGradient-5)" fill-rule="nonzero" opacity="0.8"></path>
                            <polygon id="Path" fill="#F99C80" fill-rule="nonzero" points="255.455466 71.7169068 271.145252 79.7671518 276.290486 69.9293721 259.940077 63.4511435"></polygon>
                            <path d="M259.078947,69.1073885 C259.078947,69.1073885 261.429767,58.3049211 264.054226,58.9463978 C266.678686,59.5878745 264.713451,71.6091476 264.713451,71.6091476 L259.078947,69.1073885 Z" id="Path" fill="#F99C80" fill-rule="nonzero"></path>
                            <path d="M223.816725,44.6098784 C227.624778,40.944517 235.950859,39.6932384 242.418094,41.8418986 C248.885329,43.9905587 251.041074,48.704972 247.233021,52.3703334 C243.424969,56.0356949 235.085979,57.2996127 228.631653,55.1509525 C222.177326,53.0022923 220.008673,48.2878791 223.816725,44.6098784" id="Path" stroke="#B8D9F4" stroke-width="1.33"></path>
                            <line x1="260.890688" y1="64.3575884" x2="242.773279" y2="53.4802495" id="Path" stroke="#B8D9F4" stroke-width="0.9975"></line>
                            <line x1="264.51417" y1="67.0769231" x2="252.737854" y2="60.7318087" id="Path" stroke="#1559A8" stroke-width="2.66" stroke-linecap="round"></line>
                            <ellipse id="Oval" fill="#F99C80" fill-rule="nonzero" cx="257.267206" cy="67.0769231" rx="7.24696356" ry="7.25155925"></ellipse>
                            <path d="M269.853667,64.8797708 L291.34576,74.1004509 L308.398713,39.4748095 C311.066787,34.1928506 317.473255,32.0399957 322.777979,34.6427437 C328.082703,37.2454916 330.316967,43.6378978 327.792768,48.9904487 C320.846217,63.3665021 308.181233,90.2462592 299.801876,93.0676078 C294.070651,94.9912545 275.955887,87.2068974 262.702429,79.5251347 L269.853667,64.8797708 Z" id="Path" fill="#B8D9F4" fill-rule="nonzero"></path>
                            <path d="M269.853667,64.8797708 L291.34576,74.1004509 L308.398713,39.4748095 C311.066787,34.1928506 317.473255,32.0399957 322.777979,34.6427437 C328.082703,37.2454916 330.316967,43.6378978 327.792768,48.9904487 C320.846217,63.3665021 308.181233,90.2462592 299.801876,93.0676078 C294.070651,94.9912545 275.955887,87.2068974 262.702429,79.5251347 L269.853667,64.8797708 Z" id="Path" fill="url(#linearGradient-6)" fill-rule="nonzero"></path>
                            <path d="M331.499589,258.296373 C339.825823,253.515901 353.307013,253.515901 361.594094,258.296373 C369.881176,263.076845 369.842025,270.837016 361.502741,275.604533 C353.163457,280.372051 339.682267,280.385006 331.395185,275.604533 C323.108103,270.824061 323.147255,263.076845 331.499589,258.296373" id="Path" fill="#E4EDF9" fill-rule="nonzero"></path>
                            <path d="M288.908769,238.353874 C297.24997,233.57435 310.734259,233.57435 319.023245,238.353874 C327.312232,243.133398 327.260018,250.879076 318.918817,255.6586 C310.577616,260.438124 297.093328,260.438124 288.817395,255.6586 C280.541462,250.879076 280.567569,243.133398 288.908769,238.353874" id="Path" fill="#E4EDF9" fill-rule="nonzero"></path>
                            <path d="M348.333188,248.282614 L348.333188,254.052345 C348.333188,254.052345 356.429906,274.213397 346.638826,273.738088 C340.702095,273.447621 341.555742,254.052345 341.555742,254.052345 L341.801489,246.553015 L348.333188,248.282614 Z" id="Path" fill="#1659A8" fill-rule="nonzero"></path>
                            <path d="M305.778127,234.627863 L305.778127,240.203855 C305.778127,240.203855 291.480556,248.000036 294.950966,251.904507 C298.135425,255.553783 308.260705,248.204192 311.224202,245.116342 C312.087502,244.197206 312.553511,242.984902 312.523981,241.73502 L312.316017,232.956341 L305.778127,234.627863 Z" id="Path" fill="#1659A8" fill-rule="nonzero"></path>
                            <path d="M356.912955,114.628819 C356.912955,114.628819 356.477774,149.880008 356.042592,181.771499 C355.60741,213.66299 349.642858,250.247801 349.642858,250.247801 C349.642858,250.247801 341.604792,252.812456 339.057697,248.965473 C336.510603,245.11849 331.378016,179.283783 331.378016,175.026455 C331.378016,171.794989 328.946118,143.891538 327.781366,130.709209 C327.728373,130.007178 327.187443,129.440587 326.489765,129.356335 C325.792087,129.272084 325.132267,129.693673 324.914285,130.36298 C320.47287,143.288844 311.001263,171.461584 311.001263,176.667835 C311.001263,183.476995 313.074777,236.693596 313.074777,236.693596 C313.074777,236.693596 308.454169,240.938101 304.204746,237.116765 C299.955322,233.295428 287.655033,180.899516 288.077416,170.705011 C288.499798,160.510505 301.235269,106.960499 301.235269,106.960499 L356.912955,114.628819 Z" id="Path" fill="#FEB512" fill-rule="nonzero"></path>
                            <path d="M301.996155,104.241164 L298.031377,109.883035 C298.031377,109.883035 325.758915,129.762112 352.255558,122.643509 C378.752201,115.524907 301.996155,104.241164 301.996155,104.241164 Z" id="Path" fill="#B8D9F4" fill-rule="nonzero"></path>
                            <path d="M355.41202,49.1444182 C355.289724,46.3112819 353.396205,43.8624198 350.685232,43.0313298 L350.685232,43.0313298 L321.081291,33.7969398 C319.582619,33.3271693 317.956022,33.5029083 316.592244,34.2819401 C315.228467,35.060972 314.250756,36.372894 313.893982,37.9025522 L299.843117,105.405554 C299.843117,105.405554 323.010856,131.619306 357.78189,117.061867 C358.118592,116.880547 356.059526,64.9711006 355.41202,49.1444182 Z" id="Path" fill="#328DEA" fill-rule="nonzero"></path>
                            <path d="M355.41202,49.1444182 C355.289724,46.3112819 353.396205,43.8624198 350.685232,43.0313298 L350.685232,43.0313298 L321.081291,33.7969398 C319.582619,33.3271693 317.956022,33.5029083 316.592244,34.2819401 C315.228467,35.060972 314.250756,36.372894 313.893982,37.9025522 L299.843117,105.405554 C299.843117,105.405554 323.010856,131.619306 357.78189,117.061867 C358.118592,116.880547 356.059526,64.9711006 355.41202,49.1444182 Z" id="Path" fill="url(#linearGradient-7)" fill-rule="nonzero"></path>
                            <path d="M327.019231,29.4114457 L327.019231,36.0987993 C327.019231,36.0987993 328.060578,45.7834978 338.734393,39.675463 C338.942662,39.5495241 338.552157,22.6611227 338.552157,22.6611227 L327.019231,29.4114457 Z" id="Path" fill="#F99C80" fill-rule="nonzero"></path>
                            <path d="M338.704194,22.8054642 C337.580363,29.0248878 330.032822,35.334635 324.822336,34.3410756 C317.989959,33.0507388 317.811168,17.0118518 318.00273,14.1344007 C318.194292,11.2569495 318.130438,2.31491516 324.911732,2.12136463 C331.693026,1.9278141 343.148431,-1.78835601 338.704194,22.8054642 Z" id="Path" fill="#F99C80" fill-rule="nonzero"></path>
                            <path d="M338.704194,22.8054642 C337.580363,29.0248878 330.032822,35.334635 324.822336,34.3410756 C317.989959,33.0507388 317.811168,17.0118518 318.00273,14.1344007 C318.194292,11.2569495 318.130438,2.31491516 324.911732,2.12136463 C331.693026,1.9278141 343.148431,-1.78835601 338.704194,22.8054642 Z" id="Path" fill="url(#linearGradient-8)" fill-rule="nonzero"></path>
                            <path d="M343.640098,8.75400993 C342.670633,7.85143055 341.373347,7.36103649 340.033277,7.39057607 C340.033277,7.39057607 338.870208,0 329.121336,0 C319.372464,0 315.242915,6.94459303 315.242915,10.7927895 C315.242915,14.640986 327.78838,18.6166063 337.785548,12.7041454 L337.654866,28.1733857 C337.640637,28.5443858 337.889168,28.8765012 338.255851,28.9764915 C338.622534,29.0764817 339.0117,28.9182587 339.196913,28.593884 C342.150324,23.6625858 347.848057,12.7296302 343.640098,8.75400993 Z" id="Path" fill="#1659A8" fill-rule="nonzero"></path>
                            <ellipse id="Oval" fill="#F99C80" fill-rule="nonzero" transform="translate(338.746914, 20.248976) rotate(-45.000000) translate(-338.746914, -20.248976) " cx="338.746914" cy="20.2489765" rx="4.79727837" ry="3.44683793"></ellipse>
                            <ellipse id="Oval" fill="#F99C80" fill-rule="nonzero" cx="347.401316" cy="142.765073" rx="7.69989879" ry="7.7047817"></ellipse>
                            <polygon id="Path" fill="#F99C80" fill-rule="nonzero" points="356.007085 129.629006 353.090942 139.592516 345.13664 137.046716 347.12847 126.902287"></polygon>
                            <path d="M343.949931,134.091441 C343.949931,133.975179 349.855702,94.303985 349.855702,94.303985 L340.003981,55.4466257 C338.681652,50.3363186 341.816223,45.1380529 347.014618,43.8204211 L347.014618,43.8204211 C349.568793,43.1648536 352.284489,43.5549166 354.54054,44.9013901 C356.796591,46.2478635 358.399994,48.4355582 358.983999,50.964078 C362.127605,64.5796553 367.467791,88.4262927 367.770314,93.8647728 C368.072836,99.303253 363.10094,118.719015 355.932464,135.060291 L343.949931,134.091441 Z" id="Path" fill="#B8D9F4" fill-rule="nonzero"></path>
                            <path d="M343.949931,134.091441 C343.949931,133.975179 349.855702,94.303985 349.855702,94.303985 L340.003981,55.4466257 C338.681652,50.3363186 341.816223,45.1380529 347.014618,43.8204211 L347.014618,43.8204211 C349.568793,43.1648536 352.284489,43.5549166 354.54054,44.9013901 C356.796591,46.2478635 358.399994,48.4355582 358.983999,50.964078 C362.127605,64.5796553 367.467791,88.4262927 367.770314,93.8647728 C368.072836,99.303253 363.10094,118.719015 355.932464,135.060291 L343.949931,134.091441 Z" id="Path" fill="url(#linearGradient-9)" fill-rule="nonzero" opacity="0.8"></path>
                            <path d="M331.322848,92.4573805 C331.322848,92.4573805 334.991597,95.6843904 343.324899,94.5040833 L342.879408,104.059549 C342.804022,105.715187 342.002653,107.263357 340.672734,108.322632 C339.342815,109.381907 337.607994,109.853804 335.895682,109.62206 L335.895682,109.62206 C332.73534,109.177561 330.457299,106.48692 330.654611,103.431726 L331.322848,92.4573805 Z" id="Path" fill="#1659A8" fill-rule="nonzero"></path>
                            <polygon id="Path" fill="#F3F8FF" fill-rule="nonzero" points="219.227836 106.960499 99.645749 176.545091 326.119004 308.191268 445.688259 238.606676"></polygon>
                            <polygon id="Path" fill="#F3F8FF" fill-rule="nonzero" points="98.7656418 175.850312 98.7398785 183.055617 326.074715 314.536383 326.11336 307.331077"></polygon>
                            <polygon id="Path" fill="url(#linearGradient-10)" fill-rule="nonzero" points="98.7656418 175.850312 98.7398785 183.055617 326.074715 314.536383 326.11336 307.331077"></polygon>
                            <polygon id="Path" fill="#E4EDF9" fill-rule="nonzero" points="326.152138 308.20508 326.11336 315.442827 446.555352 245.632757 446.59413 238.39501"></polygon>
                            <line x1="325.20749" y1="314.536383" x2="445.688259" y2="245.64657" id="Path" fill="#E4EDF9" fill-rule="nonzero"></line>
                            <polyline id="Path" fill="#1659A8" fill-rule="nonzero" points="351.477733 206.270171 333.666124 188.540541 303.466599 198.910702 321.278208 216.640333 351.477733 206.270171"></polyline>
                            <polyline id="Path" fill="#FFFFFF" fill-rule="nonzero" points="360.536437 211.663237 347.091786 198.511435 324.301619 206.207864 337.746271 219.359667 360.536437 211.663237"></polyline>
                            <polyline id="Path" fill="#FEB512" fill-rule="nonzero" points="236.432186 129.042415 217.20153 122.370062 205.632591 133.839365 224.863247 140.49896 236.432186 129.042415"></polyline>
                            <line x1="106.439777" y1="185.821206" x2="106.439777" y2="232.049896" id="Path" stroke="#B8D9F4" stroke-width="1.33" stroke-linecap="round"></line>
                            <polygon id="Path" fill="#F3F8FF" fill-rule="nonzero" style="mix-blend-mode: multiply;" points="273.83145 176.458974 275.571447 175.864842 250.734605 151.376299 200.197368 168.580276 225.03421 193.068819 235.719078 189.426535 246.494169 185.771336 229.416424 201.244582 270.183902 216.640333 302.560729 187.308328"></polygon>
                            <polyline id="Path" fill="#328DEA" fill-rule="nonzero" points="275.384615 172.241381 250.609338 147.75052 200.197368 164.956125 224.972646 189.446985 275.384615 172.241381"></polyline>
                            <line x1="213.785425" y1="167.692308" x2="229.185223" y2="183.101871" id="Path" stroke="#1659A8" stroke-width="1.33" stroke-linecap="round"></line>
                            <line x1="221.032389" y1="164.972973" x2="236.432186" y2="180.382536" id="Path" stroke="#1659A8" stroke-width="1.33" stroke-linecap="round"></line>
                            <line x1="243.67915" y1="156.814969" x2="259.984818" y2="172.224532" id="Path" stroke="#1659A8" stroke-width="1.33" stroke-linecap="round"></line>
                            <polyline id="Path" fill="#B8D9F4" fill-rule="nonzero" points="295.313765 184.79357 254.404496 169.505198 221.938259 198.632625 262.847528 213.920998 295.313765 184.79357"></polyline>
                            <polyline id="Path" fill="#B8D9F4" fill-rule="nonzero" points="302.560729 184.79357 261.65146 169.505198 229.185223 198.632625 270.081562 213.920998 302.560729 184.79357"></polyline>
                            <path d="M237.93729,226.357325 C235.503561,223.983672 230.204312,223.188107 226.161182,224.570565 C222.118051,225.953022 220.704918,229.017903 223.125563,231.391556 C225.546207,233.765209 230.832372,234.573816 234.901671,233.178317 C238.970971,231.782817 240.384104,228.730978 237.96346,226.357325" id="Path" fill="#F3F8FF" fill-rule="nonzero"></path>
                            <path d="M157.621457,192.16632 C157.621457,192.16632 141.682557,219.737555 139.690195,228.495477 C137.697832,237.253399 152.355928,264.681913 152.355928,264.681913 L157.621457,192.16632 Z" id="Path" fill="#F99C80" fill-rule="nonzero"></path>
                            <path d="M154.770222,201.691361 L144.939271,263.257399 C144.939271,263.257399 171.27856,276.304762 194.374911,256.096161 C194.809005,255.709763 190.212716,226.652654 190.212716,226.652654 C190.212716,226.652654 199.149945,224.488827 198.332827,212.09834 C197.901367,207.834341 196.436906,203.742851 194.068492,200.18441 C191.375619,195.859855 188.008527,192.002089 184.097099,188.759917 C180.915123,186.180908 176.730304,185.23008 172.759586,186.183932 L167.920716,187.356005 C161.070871,189.018827 155.883783,194.673272 154.770222,201.691361 L154.770222,201.691361 Z" id="Path" fill="#1659A8" fill-rule="nonzero"></path>
                            <path d="M154.770222,201.691361 L144.939271,263.257399 C144.939271,263.257399 171.27856,276.304762 194.374911,256.096161 C194.809005,255.709763 190.212716,226.652654 190.212716,226.652654 C190.212716,226.652654 199.149945,224.488827 198.332827,212.09834 C197.901367,207.834341 196.436906,203.742851 194.068492,200.18441 C191.375619,195.859855 188.008527,192.002089 184.097099,188.759917 C180.915123,186.180908 176.730304,185.23008 172.759586,186.183932 L167.920716,187.356005 C161.070871,189.018827 155.883783,194.673272 154.770222,201.691361 L154.770222,201.691361 Z" id="Path" fill="url(#linearGradient-11)" fill-rule="nonzero"></path>
                            <path d="M230.731352,211.821585 L237.338057,220.6013 C237.338057,220.6013 216.776766,234.839371 203.921167,233.809493 C195.435961,233.127198 184.62499,219.378319 178.261085,210.109412 C176.812501,208.008145 176.307223,205.390311 176.868665,202.895319 C177.430108,200.400326 179.006576,198.257902 181.213017,196.991333 L181.213017,196.991333 C185.36768,194.600977 190.65183,195.88804 193.263543,199.926487 C198.272882,207.650577 205.850785,218.86338 207.895413,219.056482 C211.000692,219.352572 230.731352,211.821585 230.731352,211.821585 Z" id="Path" fill="#F99C80" fill-rule="nonzero"></path>
                            <path d="M183.8917,181.064764 L182.844331,187.068339 C182.482242,189.166063 180.457654,190.605362 178.275184,190.316589 L175.656762,189.987972 C174.557397,189.845521 173.565314,189.277572 172.908504,188.414646 C172.251694,187.55172 171.986642,186.468029 172.17426,185.412616 L174.21663,174.037422 L183.8917,181.064764 Z" id="Path" fill="#F99C80" fill-rule="nonzero"></path>
                            <path d="M177.960656,155.120387 C180.414958,155.043254 188.15247,153.294917 189.663803,166.343168 C191.175137,179.391418 189.663803,182.451008 185.271894,183.055213 C180.879984,183.659418 175.738866,178.195864 175.738866,178.195864 L177.960656,155.120387 Z" id="Path" fill="#F99C80" fill-rule="nonzero"></path>
                            <path d="M186.231069,157.692385 C185.697339,152.201431 169.939611,152.954841 166.305167,160.246317 C163.204453,166.439601 168.020726,176.361626 166.597448,180.256372 C165.174169,184.151118 157.371552,188.071404 153.482951,197.57203 C149.59435,207.072656 154.753736,218.399344 164.920012,220.646804 C177.627858,223.468899 187.133326,214.517368 187.501854,203.663157 C187.870381,192.808947 180.474415,182.669838 180.474415,182.669838 C180.474415,182.669838 187.99746,175.697604 186.231069,157.692385 Z" id="Path" fill="#FEB512" fill-rule="nonzero"></path>
                            <path d="M186.231069,157.692385 C185.697339,152.201431 169.939611,152.954841 166.305167,160.246317 C163.204453,166.439601 168.020726,176.361626 166.597448,180.256372 C165.174169,184.151118 157.371552,188.071404 153.482951,197.57203 C149.59435,207.072656 154.753736,218.399344 164.920012,220.646804 C177.627858,223.468899 187.133326,214.517368 187.501854,203.663157 C187.870381,192.808947 180.474415,182.669838 180.474415,182.669838 C180.474415,182.669838 187.99746,175.697604 186.231069,157.692385 Z" id="Path" fill="url(#linearGradient-12)" fill-rule="nonzero" opacity="0.8"></path>
                            <ellipse id="Oval" fill="#F99C80" fill-rule="nonzero" transform="translate(185.182298, 171.201878) rotate(-46.980000) translate(-185.182298, -171.201878) " cx="185.182298" cy="171.201878" rx="3.44686439" ry="4.79724155"></ellipse>
                            <ellipse id="Oval" fill="#F99C80" fill-rule="nonzero" cx="233.714575" cy="214.827443" rx="7.24696356" ry="7.25155925"></ellipse>
                            <path d="M268.064438,190.553143 C264.268838,186.876032 255.928844,185.637692 249.460831,187.773196 C242.992817,189.908701 240.849723,194.63461 244.658234,198.311722 C248.466745,201.988833 256.793828,203.227173 263.261841,201.091668 C269.729855,198.956164 271.872949,194.230254 268.064438,190.553143" id="Path" stroke="#328DEA" stroke-width="1.33"></path>
                            <line x1="230.996964" y1="212.108108" x2="249.114372" y2="201.230769" id="Path" stroke="#328DEA" stroke-width="0.9975"></line>
                            <line x1="227.373482" y1="213.920998" x2="239.149798" y2="207.575884" id="Path" stroke="#1559A8" stroke-width="2.66" stroke-linecap="round"></line>
                            <path d="M230.793599,218.453222 C230.793599,218.453222 236.482547,208.234302 233.987857,206.799828 C231.493168,205.365353 224.65587,216.240034 224.65587,216.240034 L230.793599,218.453222 Z" id="Path" fill="#F99C80" fill-rule="nonzero"></path>
                            <polygon id="Path" fill="#F3F8FF" fill-rule="nonzero" style="mix-blend-mode: multiply;" points="347.754063 235.840063 316.307055 241.606274 298.894992 235.675676 283.537449 250.622301 297.854891 255.490703 300.551449 260.814332 306.663648 272.839917 361.442308 262.799628"></polygon>
                            <polyline id="Path" fill="#B8D9F4" fill-rule="nonzero" points="362.348178 260.035686 348.775415 232.956341 294.407895 243.053939 307.980658 270.120582 362.348178 260.035686"></polyline>
                            <polyline id="Path" fill="#B8D9F4" fill-rule="nonzero" points="326.11336 245.578186 300.087586 236.582121 284.44332 252.060067 310.456003 261.056133 326.11336 245.578186"></polyline>
                            <polyline id="Path" fill="#FEB512" fill-rule="nonzero" points="326.11336 241.952407 300.087586 232.956341 284.44332 248.434288 310.456003 257.430353 326.11336 241.952407"></polyline>
                            <line x1="344.230769" y1="239.301455" x2="348.760121" y2="249.272349" id="Path" stroke="#FFFFFF" stroke-width="1.33" stroke-linecap="round"></line>
                            <line x1="336.983806" y1="241.114345" x2="344.230769" y2="257.430353" id="Path" stroke="#FFFFFF" stroke-width="1.33" stroke-linecap="round"></line>
                        </g>
                        <polyline id="line" stroke="#B8D9F4" stroke-width="2" stroke-linecap="round" stroke-linejoin="round" points="221.413873 358.952183 136.184883 407.956277 440.196523 583.48496 -1.14239552e-12 872"></polyline>
                        <path d="M837.976931,610.500394 C836.705858,609.764995 836.699834,608.571479 837.976931,607.83608 L862.271878,593.70678 C863.717236,592.977157 865.42286,592.977157 866.868219,593.70678 L891.319791,607.83608 C892.590863,608.571479 892.596887,609.764995 891.319791,610.500394 L867.024844,624.623666 C865.582983,625.359045 863.876388,625.359045 862.434527,624.623666 L837.982955,610.500394 M893.000498,606.847511 L868.548926,592.724239 C866.037285,591.446452 863.066668,591.446452 860.555027,592.724239 L836.26008,606.853539 C834.055282,608.131445 834.06733,610.211056 836.26008,611.488963 L860.717676,625.618263 C863.23142,626.896135 866.203855,626.896135 868.717599,625.618263 L893.012546,611.488963 C895.21132,610.211056 895.199272,608.131445 893.012546,606.847511" id="Shape" fill="#E4EDF9" fill-rule="nonzero"></path>
                        <line x1="850.202876" y1="599.923903" x2="469.545207" y2="380.564235" id="line" stroke="#E3ECF4" stroke-width="2" stroke-linecap="square"></line>
                    </g>
                </g>
            </g>
        </g>
    </g>
</svg>