<?xml version="1.0" encoding="UTF-8"?>
<svg id="Layer_1" data-name="Layer 1" xmlns="http://www.w3.org/2000/svg" viewBox="0 0 1000 1000">
  <defs>
    <style>
      .cls-1 {
        fill: rgba(53, 92, 223, 1);
      }
    </style>
  </defs> 
  <path class="cls-1" d="m299.89,845.94c-30.03,0-57.37-15.12-73.36-40.65-16.24-25.95-17.69-57.75-3.86-85.06l95.11-187.92c9.08-17.95,25.41-31.33,44.79-36.71,19.38-5.38,40.27-2.33,57.31,8.35l345.93,217.07c24.52,15.38,35.33,43.34,27.56,71.22-7.78,27.88-31.5,46.2-60.45,46.67l-431.56,7.03c-.49,0-.98.01-1.46.01Zm82-324.11c-3.86,0-7.75.53-11.6,1.6-11.74,3.26-21.24,11.05-26.75,21.93l-95.11,187.92c-9.21,18.2-8.25,39.4,2.58,56.69,10.65,17.02,28.88,27.09,48.89,27.09.33,0,.65,0,.98,0l431.56-7.03c19.23-.32,29.7-13.41,33.09-25.55,3.39-12.15,1.21-28.77-15.08-38.99l-345.93-217.07c-6.94-4.36-14.71-6.58-22.63-6.58Z"/> 
</svg>