<?xml version="1.0" encoding="UTF-8"?>
<svg id="Layer_1" data-name="Layer 1" xmlns="http://www.w3.org/2000/svg" viewBox="0 0 1000 1000">
  <defs>
    <style>
      .cls-2 {
        fill: rgba(70, 110, 240, 1);
      }
    </style>
  </defs>
  <path class="cls-2" d="m292.2,826.49c-14.88,0-29.78-3.85-43.45-11.59-28.06-15.86-44.81-44.58-44.81-76.81v-479.42c0-32.32,16.82-61.08,45-76.92,28.18-15.83,61.49-15.26,89.1,1.54l425.74,259.09c20.27,12.34,32.34,33.87,32.29,57.61-.06,23.74-12.24,45.21-32.57,57.45l-425.84,256.25c-14.16,8.52-29.8,12.79-45.46,12.79Zm0-627.27c-9.96,0-19.94,2.57-29.11,7.72-18.95,10.65-30.27,30-30.27,51.74v479.42c0,21.68,11.27,40.99,30.14,51.67,18.87,10.67,41.23,10.37,59.81-.81l425.84-256.25c11.6-6.98,18.55-19.23,18.58-32.77.03-13.54-6.85-25.82-18.42-32.86L323.02,207.97c-9.59-5.84-20.2-8.76-30.82-8.76Z"/>
</svg>