<svg xmlns="http://www.w3.org/2000/svg" xmlns:xlink="http://www.w3.org/1999/xlink" width="150" height="170" viewBox="0 0 150 170">
  <defs>
    <clipPath id="clip-path">
      <rect id="Rectangle_21795" data-name="Rectangle 21795" width="150" height="170" transform="translate(80 2477)" fill="none"/>
    </clipPath>
    <radialGradient id="radial-gradient" cx="0.283" cy="0.318" r="1.253" gradientTransform="matrix(0.533, -0.846, 1.007, 0.634, -0.27, 0.606)" gradientUnits="objectBoundingBox">
      <stop offset="0" stop-color="#9af0d9"/>
      <stop offset="0.478" stop-color="#3ee6b8"/>
      <stop offset="1" stop-color="#24caa9"/>
    </radialGradient>
    <filter id="Path_23394">
      <feOffset dy="3" input="SourceAlpha"/>
      <feGaussianBlur stdDeviation="6" result="blur"/>
      <feFlood flood-color="#008e67" result="color"/>
      <feComposite operator="out" in="SourceGraphic" in2="blur"/>
      <feComposite operator="in" in="color"/>
      <feComposite operator="in" in2="SourceGraphic"/>
    </filter>
    <radialGradient id="radial-gradient-2" cx="0.251" cy="0.113" r="1.253" xlink:href="#radial-gradient"/>
    <radialGradient id="radial-gradient-3" cx="0.206" cy="0.152" r="0.562" gradientTransform="translate(0 -0.002) scale(1 1.012)" gradientUnits="objectBoundingBox">
      <stop offset="0" stop-color="#ebc0f5"/>
      <stop offset="1" stop-color="#7d7dfc"/>
    </radialGradient>
  </defs>
  <g id="Illustration_Section_5_Left" data-name="Illustration_Section 5_Left" transform="translate(-80 -2477)" clip-path="url(#clip-path)">
    <g id="Illustration_Square" transform="translate(107.31 2505.336) rotate(13)">
      <path id="Path_23395" data-name="Path 23395" d="M1.987,14.121,55.417,0V53.955L0,67.867Z" transform="translate(30.262 0) rotate(18)" fill="url(#radial-gradient)"/>
      <g data-type="innerShadowGroup">
        <path id="Path_23394-2" data-name="Path 23394" d="M9.566,57.972,51.712,72.314,40.841,19.381,0,0Z" transform="translate(91.695 105.609) rotate(-150)" fill="#12be89"/>
        <g transform="matrix(0.97, -0.22, 0.22, 0.97, -32.98, -21.47)" filter="url(#Path_23394)">
          <path id="Path_23394-3" data-name="Path 23394" d="M9.566,57.972,51.712,72.314,40.841,19.381,0,0Z" transform="translate(92.9 151.86) rotate(-137)" fill="#fff"/>
        </g>
      </g>
      <path id="Path_23393" data-name="Path 23393" d="M0,13.792,55.271,0,91.1,27.5,37.572,44Z" transform="translate(13.595 51.406) rotate(18)" fill="url(#radial-gradient-2)"/>
    </g>
    <circle id="Illustration_purple_ball" cx="14.485" cy="14.485" r="14.485" transform="translate(192.737 2491.6) rotate(13)" fill="url(#radial-gradient-3)"/>
  </g>
</svg>
